<?xml version="1.0" standalone="no"?>
<!DOCTYPE svg PUBLIC "-//W3C//DTD SVG 20010904//EN"
 "http://www.w3.org/TR/2001/REC-SVG-20010904/DTD/svg10.dtd">
<svg version="1.0" xmlns="http://www.w3.org/2000/svg"
 width="512.000000pt" height="512.000000pt" viewBox="0 0 512.000000 512.000000"
 preserveAspectRatio="xMidYMid meet">
<metadata>
Created by potrace 1.14, written by Peter Selinger 2001-2017
</metadata>
<g transform="translate(0.000000,512.000000) scale(0.100000,-0.100000)"
fill="#000000" stroke="none">
<path d="M430 5113 c-180 -30 -335 -161 -402 -339 l-23 -59 -3 -2129 c-2
-1890 -1 -2136 13 -2190 25 -100 63 -166 139 -242 80 -79 163 -125 260 -143
84 -15 4208 -15 4292 0 97 18 180 64 260 143 76 76 114 142 139 242 14 54 15
300 13 2190 l-3 2129 -23 59 c-30 81 -73 144 -135 203 -63 59 -106 86 -183
116 l-59 22 -2130 1 c-1172 1 -2141 -1 -2155 -3z m1257 -1061 c37 -37 79 -89
93 -115 14 -26 29 -47 33 -47 5 0 46 26 90 58 151 108 256 161 332 169 45 5
63 1 117 -24 74 -35 196 -124 313 -229 46 -41 87 -74 90 -74 3 0 42 32 86 71
184 162 343 259 424 259 83 0 218 -85 425 -267 178 -157 286 -273 318 -341
l27 -57 3 -1232 2 -1233 -300 0 -300 0 -2 1158 -3 1157 -22 41 c-31 59 -156
171 -204 184 -49 14 -75 1 -147 -72 l-53 -54 1 -1207 0 -1207 -305 0 -305 0
-2 1157 c-3 1332 9 1186 -113 1310 -38 39 -82 75 -97 78 -41 10 -112 -29 -181
-99 l-60 -61 2 -1192 2 -1193 -306 0 -305 0 0 1049 c0 1051 -4 1187 -36 1316
-21 82 -83 203 -159 310 -35 49 -63 90 -62 91 22 19 522 364 528 364 5 0 39
-31 76 -68z"/>
</g>
</svg>
